<?xml version="1.0" encoding="UTF-8"?><svg id="Layer_2" xmlns="http://www.w3.org/2000/svg" viewBox="0 0 114.74 52.98"><defs><style>.cls-1{fill:#6abd45;}.cls-2{fill:#231f20;}</style></defs><g id="Layer_1-2"><g><path class="cls-2" d="M54.99,38.07s10.79,1.25,15.17,7.19l17,.15s.53-7.13-.41-7.14c-4.21-.04-23.81-.46-31.76-.21Z"/><path class="cls-1" d="M89.98,39.46l24.76-.92-22.65,2.22,20.42,1.49-20.49-.43,20.32,2.96-20.28-1.81,21.82,4.71-23.88-3.37s.56-1.44-.01-4.85Z"/><path class="cls-2" d="M57.01,0c6.04,0,10.98,4.93,10.98,10.91v13.7c0,5.97-4.93,10.91-10.98,10.91l-30.65,.08c.15,0,.22,.15,.22,.44,0,0-.15,0-.22-.07v17.02H14.94V0H57.01ZM26.36,24.02h30.06V11.42H26.36v12.6Z"/><path class="cls-1" d="M17.8,50.58c24.17-9.69,47.12-5.22,47.12-5.22,0,0-10.34-9.44-37.31-6.99-3.8,.35-8.52,1.08-12.85,2.18-7.2,1.84-10.62-10.3-5.42-11.83,.24-.07,1.62-.55,1.87-.62,.37-.1,3.67-.99,3.67-.99C-.74,27.37-.18,33.12,.08,39.67s10.29,13.89,17.72,10.91Z"/></g></g></svg>